<?xml version="1.0" encoding="UTF-8" standalone="no"?>
<!DOCTYPE svg PUBLIC "-//W3C//DTD SVG 1.1//EN" "http://www.w3.org/Graphics/SVG/1.1/DTD/svg11.dtd">
<svg width="100%" height="100%" viewBox="0 0 4961 3508" version="1.1" xmlns="http://www.w3.org/2000/svg" xmlns:xlink="http://www.w3.org/1999/xlink" xml:space="preserve" xmlns:serif="http://www.serif.com/" style="fill-rule:evenodd;clip-rule:evenodd;stroke-linecap:round;stroke-linejoin:round;stroke-miterlimit:1.5;">
    <g transform="matrix(0.797499,0,0,0.797499,489.128286,567.569886)">
        <path d="M1584.027,1581.969C1660.14,1369.419 1778.648,1178.639 1958.166,1019.189C1939.348,819.389 1978.853,648.75 2053.94,495.903L2415.001,921.111L2797.989,1050.466L2937.59,1274.535L3394.383,1469.514L3254.725,1676.045C3210.87,1725.009 3156.746,1755.056 3085.702,1753.937C2995.858,1753.307 2937.86,1746.753 2887.463,1738.784C2820.503,1732.085 2764.613,1732.274 2724.028,1741.986C2674.151,1755.126 2658.458,1779.661 2658.044,1809.289C2658.284,1824.187 2662.855,1840.529 2675.404,1859.53C2723.5,1914.988 2752.238,1978.19 2771.711,2045.097C2795.992,2132.377 2797.813,2224.47 2782.967,2320.134C2756.393,2440.828 2725.557,2487.097 2673.978,2556.032L2585.664,2675.523C2173.479,2385.465 1869.029,2134.081 1699.051,1930.969C1682.121,1817.121 1724.536,1552.306 1748.946,1530.992L1584.027,1581.969Z" style="fill:rgb(66,202,237);"/>
    </g>
    <g transform="matrix(0.797499,0,0,0.797499,489.128286,567.569886)">
        <path d="M2018.207,2144.737C2191.95,2289.42 2376.465,2430.512 2576.766,2566.342C2654.384,2472.082 2713.14,2355.188 2755.348,2218.435C2741.043,2333.191 2683.368,2449.964 2586.441,2598.212C2354.518,2441.739 2155.694,2289.405 2018.207,2144.737Z" style="fill:rgb(171,237,251);"/>
    </g>
    <g transform="matrix(0.797499,0,0,0.797499,489.128286,567.569886)">
        <path d="M2045.211,1046.411C2001.349,924.622 2010.112,786.64 2069.591,633.054L2369.677,980.835L2748.722,1103L2897.116,1338.071L3291.21,1500.418L3210.45,1618.536C3180.72,1658.365 3142.575,1681.23 3098.736,1683.073C2995.736,1680.834 2919.14,1672.227 2853.454,1661.508C2755.888,1650.195 2672.259,1654.526 2617.246,1690.976C2553.377,1731.111 2520.819,1784.352 2503.627,1844.025C2495.603,1887.08 2494.661,1938.162 2521.404,2011.636C2555.356,1857.507 2609.25,1727.058 2779.289,1734.532C2683.231,1747.478 2653.339,1774.673 2659.653,1825.52C2661.936,1837.986 2669.826,1853.51 2685.694,1873.385C2712.693,1899.348 2745.996,1967.996 2753.892,1990.778C2762.314,2013.939 2771.449,2036.531 2775.846,2062.913C2760.027,2244.495 2693.551,2411.251 2581.164,2564.569C2178.168,2286.584 1915.516,2066.759 1773.961,1897.119C1770.348,1730.914 1795.26,1566.34 1874.093,1404.846L1709.899,1456.741C1792.905,1293.548 1888.158,1141.602 2045.211,1046.411Z" style="fill:rgb(10,36,92);"/>
    </g>
    <g transform="matrix(0.797499,0,0,0.797499,489.128286,567.569886)">
        <path d="M2897.116,1338.071L3014.94,1576.108L3291.21,1499.7L2897.116,1338.071" style="fill:rgb(16,69,164);stroke:black;stroke-opacity:0;stroke-width:5.22px;"/>
    </g>
    <g transform="matrix(0.797499,0,0,0.797499,489.128286,567.569886)">
        <path d="M2366.756,752.452L2433.388,536.856L2554.058,882.215L2366.756,752.452Z" style="fill:rgb(14,121,193);"/>
    </g>
    <g transform="matrix(0.797499,0,0,0.797499,489.128286,567.569886)">
        <path d="M2142.991,1239.35C1969.543,1442.105 1950.606,1660.094 2065.801,1891.307C2115.861,1816.388 2163.537,1749.902 2199.71,1724.119C2215.924,1910.653 2311.577,2045.503 2500.554,2119.636C2314.638,1962.651 2251.887,1779.572 2262.473,1580.956C2183.516,1630.944 2121.397,1685.241 2079.101,1744.608C2050.009,1594.61 2072.971,1425.582 2142.991,1239.35Z" style="fill:url(#_Linear1);stroke:black;stroke-width:1.25px;"/>
    </g>
    <g transform="matrix(0.797499,0,0,0.797499,489.128286,567.569886)">
        <path d="M2667.026,1643.647L2874.457,1386.211L2742.618,1347.186C2679.235,1345.886 2626.168,1326.431 2601.991,1298.306L2667.026,1643.647Z" style="fill:rgb(11,42,106);"/>
    </g>
    <g transform="matrix(0.797499,0,0,0.797499,489.311349,566.10542)">
        <path d="M2205.246,1623.217L2262.678,1581.934L2258.615,1643.6L2242.924,1613.89L2205.246,1623.217Z" style="fill:url(#_Linear2);stroke:black;stroke-opacity:0;stroke-width:1.25px;"/>
    </g>
    <g transform="matrix(0.797499,0,0,0.797499,489.128286,567.569886)">
        <path d="M1709.899,1453.694C1782.465,1294.285 1888.098,1152.912 2046.283,1040.204L2196.16,1200.969L1844.995,1475.673L1874.579,1402.676L1709.899,1453.694Z" style="fill:rgb(17,72,131);"/>
    </g>
    <g transform="matrix(0.797499,0,0,0.797499,489.128286,567.569886)">
        <path d="M2045.49,1040.204C2007.208,933.95 2004.742,804.491 2067.069,633.054L2370.299,982.355L2389.286,986.871L2563.567,1266.888L2292.934,1316.55L2299.31,1301.673L2045.49,1040.204Z" style="fill:rgb(13,55,111);"/>
    </g>
    <g transform="matrix(0.797499,0,0,0.797499,489.128286,567.569886)">
        <path d="M2557.592,1255.168L2560.552,1253.427L2561.597,1246.636L2579.356,1246.984L2763.49,1125.371L2751.588,1104.118L2390.041,987.753L2557.592,1255.168Z" style="fill:rgb(17,72,131);stroke:black;stroke-opacity:0;stroke-width:5.22px;"/>
    </g>
    <g transform="matrix(0.797499,0,0,0.797499,489.128286,567.569886)">
        <path d="M2290.887,1316.55L2306.787,1316.55L2603.857,1695.417C2476.02,1806.866 2488.442,1907.526 2518.496,2006.829L2609.73,2176.957L2067.823,1985.518L2064.842,1891.139C2103.913,1831.084 2147.919,1774.2 2200.532,1722.851C2206.847,1900.784 2305.62,2033.674 2500.554,2119.716C2302.224,1949.246 2255.068,1766.518 2266.539,1579.037L2290.887,1316.55Z" style="fill:rgb(12,40,92);"/>
    </g>
    <g transform="matrix(0.797499,0,0,0.797499,489.128286,567.569886)">
        <path d="M2138.389,1240.32L2196.16,1199.059L2296.63,1299.716L2196.16,1618.536L2072.465,1705.893C2053.187,1600.68 2067.483,1461.945 2138.389,1240.32Z" style="fill:url(#_Linear3);stroke:black;stroke-opacity:0;stroke-width:5.22px;"/>
    </g>
    <g transform="matrix(0.797499,0,0,0.797499,489.128286,567.569886)">
        <path d="M2307.341,1316.55L2567.264,1268.215C2577.401,1279.344 2590.323,1290.705 2606.403,1302.329L2667.026,1670.436C2647.23,1674.193 2626.674,1682.123 2604.975,1696.339L2307.341,1316.55Z" style="fill:rgb(10,36,91);stroke:rgb(11,38,90);stroke-width:5.22px;"/>
    </g>
    <g transform="matrix(0.797499,0,0,0.797499,489.128286,567.569886)">
        <path d="M2560.796,1252.221C2609.809,1235.738 2658.822,1224.736 2707.835,1227.359C2728.537,1243.378 2752.526,1283.637 2778.684,1339.899C2678.223,1360.27 2608.056,1326.656 2560.796,1252.221Z" style="fill:white;stroke:black;stroke-opacity:0;stroke-width:1.25px;"/>
    </g>
    <g transform="matrix(0.797499,0,0,0.797499,489.128286,567.569886)">
        <path d="M3015.378,1576.108L3291.21,1499.127C3228.487,1606.298 3180.596,1675.394 3103.245,1683.16L3015.378,1576.108Z" style="fill:rgb(12,61,150);stroke:black;stroke-opacity:0;stroke-width:5.22px;"/>
    </g>
    <g transform="matrix(0.797499,0,0,0.797499,489.128286,567.569886)">
        <path d="M2856.38,1661.161L3015.378,1577.681L3100.429,1683.16C3003.757,1677.629 2921.869,1670.36 2856.38,1661.161Z" style="fill:rgb(12,61,150);stroke:black;stroke-opacity:0;stroke-width:5.22px;"/>
    </g>
    <g transform="matrix(0.797499,0,0,0.797499,489.128286,567.569886)">
        <path d="M2736.597,1255.65L2886.711,1323.003L3014.09,1577.681L2856.38,1661.273C2787.695,1651.532 2725.004,1656.087 2668.059,1669.824L2666.481,1635.646L2873.23,1387.66L2747.293,1348.78C2778.274,1347.585 2784.406,1347.387 2772.34,1324.688L2736.597,1255.65Z" style="fill:rgb(10,33,89);"/>
    </g>
    <g transform="matrix(0.797499,0,0,0.797499,489.128286,567.569886)">
        <path d="M2609.73,2176.957L2524.333,2009.763C2558.339,1855.167 2617.082,1731.574 2773.561,1730.477C2689.038,1742.03 2648.387,1774.564 2659.863,1832.03C2660.386,1856.092 2713.703,1908.272 2722.678,1928.264C2743.249,1961.293 2760.823,2004.859 2773.568,2052.235L2609.73,2176.957Z" style="fill:rgb(10,46,109);"/>
    </g>
    <g transform="matrix(0.797499,0,0,0.797499,489.128286,567.569886)">
        <path d="M2608.052,2176.957L2773.568,2055.943C2787.089,2141.693 2751.005,2244.309 2701.44,2357.86L2608.052,2176.957Z" style="fill:rgb(12,81,199);stroke:black;stroke-opacity:0;stroke-width:5.22px;"/>
    </g>
    <g transform="matrix(0.797499,0,0,0.797499,489.128286,567.569886)">
        <path d="M2608.052,2175.711L2586.441,2561.249C2626.693,2506.719 2672.923,2423.677 2701.97,2356.075L2608.052,2175.711Z" style="fill:url(#_Linear4);stroke:black;stroke-opacity:0;stroke-width:5.22px;"/>
    </g>
    <g transform="matrix(0.797499,0,0,0.797499,489.128286,567.569886)">
        <path d="M1782.871,1904.28L2065.163,1887.784L2077.558,1982.817L2608.052,2179.533L2600.595,2541.518L2582.669,2567.69C2255.111,2349.166 1974.251,2128.64 1782.871,1904.28Z" style="fill:url(#_Linear5);stroke:black;stroke-opacity:0;stroke-width:5.22px;"/>
    </g>
    <g transform="matrix(0.797499,0,0,0.797499,489.128286,567.569886)">
        <path d="M1773.657,1885.36C1767.09,1726.625 1790.269,1597.137 1843.873,1473.674L2130.535,1255.038C2036.72,1371.973 1963.742,1511.594 2010.941,1746.478L1773.657,1885.36Z" style="fill:rgb(19,48,106);"/>
    </g>
    <g transform="matrix(0.797499,0,0,0.797499,489.128286,567.569886)">
        <path d="M2521.933,2007.24C2571.196,1819.465 2637.834,1727.827 2776.126,1736.03C2950.653,1748.848 3034.085,1755.726 3083.788,1753.937C3200.674,1758.08 3267.889,1647.446 3248.912,1598.812C3248.912,1598.812 3201.3,1661.345 3123.881,1690.489C3016.111,1706.882 2821.718,1650.833 2751.563,1653.703C2644.548,1660.303 2579.955,1699.966 2538.383,1762.029C2485.973,1857.844 2491.326,1936.33 2521.933,2007.24" style="fill:rgb(59,165,234);"/>
    </g>
    <g transform="matrix(0.797499,0,0,0.797499,489.128286,567.569886)">
        <path d="M2044.126,1040.43C1843.213,1139.299 1729.307,1314.377 1680.574,1468.584C1667.57,1506.722 1713.85,1483.678 1758.928,1470.188L1830.746,1445.405C1786.26,1553.037 1765.512,1642.866 1760.687,1720.753C1779.115,1651.569 1836.537,1470.895 1872.495,1405.606L1709.324,1457.089C1784.59,1293.288 1891.398,1151.115 2044.126,1040.43Z" style="fill:url(#_Linear6);"/>
    </g>
    <g transform="matrix(0.797499,0,0,0.797499,489.128286,567.569886)">
        <path d="M2070.826,633.054L2370.432,987.753L2750.01,1102.827L2861.907,1255.038L2763.49,1082.754L2383.242,959.384L2070.826,633.054" style="fill:rgb(167,236,251);"/>
    </g>
    <defs>
        <linearGradient id="_Linear1" x1="0" y1="0" x2="1" y2="0" gradientUnits="userSpaceOnUse" gradientTransform="matrix(-399.251004,-796.652634,796.652634,-399.251004,2460.406614,2114.815783)"><stop offset="0" style="stop-color:rgb(66,202,237);stop-opacity:1"/><stop offset="1" style="stop-color:rgb(151,202,237);stop-opacity:1"/></linearGradient>
        <linearGradient id="_Linear2" x1="0" y1="0" x2="1" y2="0" gradientUnits="userSpaceOnUse" gradientTransform="matrix(20.514835,-35.265741,35.265741,20.514835,2246.618438,1617.199321)"><stop offset="0" style="stop-color:rgb(114,202,237);stop-opacity:1"/><stop offset="1" style="stop-color:rgb(233,228,240);stop-opacity:1"/></linearGradient>
        <linearGradient id="_Linear3" x1="0" y1="0" x2="1" y2="0" gradientUnits="userSpaceOnUse" gradientTransform="matrix(-167.021219,-139.808387,139.808387,-167.021219,2195.461418,1326.315149)"><stop offset="0" style="stop-color:rgb(11,38,90);stop-opacity:1"/><stop offset="1" style="stop-color:rgb(55,97,179);stop-opacity:1"/></linearGradient>
        <linearGradient id="_Linear4" x1="0" y1="0" x2="1" y2="0" gradientUnits="userSpaceOnUse" gradientTransform="matrix(167.680778,-205.035494,205.035494,167.680778,2536.074273,2488.527261)"><stop offset="0" style="stop-color:rgb(12,81,199);stop-opacity:1"/><stop offset="0.5" style="stop-color:rgb(13,79,192);stop-opacity:1"/><stop offset="1" style="stop-color:rgb(15,72,171);stop-opacity:1"/></linearGradient>
        <linearGradient id="_Linear5" x1="0" y1="0" x2="1" y2="0" gradientUnits="userSpaceOnUse" gradientTransform="matrix(664.020255,315.328958,-315.328958,664.020255,1987.053288,1984.031508)"><stop offset="0" style="stop-color:rgb(12,40,92);stop-opacity:1"/><stop offset="0.56" style="stop-color:rgb(12,48,114);stop-opacity:1"/><stop offset="1" style="stop-color:rgb(12,81,199);stop-opacity:1"/></linearGradient>
        <linearGradient id="_Linear6" x1="0" y1="0" x2="1" y2="0" gradientUnits="userSpaceOnUse" gradientTransform="matrix(365.778769,0,0,680.322582,1678.34691,1380.59158)"><stop offset="0" style="stop-color:rgb(119,217,242);stop-opacity:1"/><stop offset="0.2" style="stop-color:rgb(147,228,247);stop-opacity:1"/><stop offset="0.42" style="stop-color:rgb(177,240,252);stop-opacity:1"/><stop offset="1" style="stop-color:rgb(191,245,255);stop-opacity:1"/></linearGradient>
    </defs>
</svg>
