<?xml version="1.0" encoding="UTF-8" standalone="no"?><!DOCTYPE svg PUBLIC "-//W3C//DTD SVG 1.1//EN" "http://www.w3.org/Graphics/SVG/1.1/DTD/svg11.dtd"><svg width="100%" height="100%" viewBox="0 0 4961 3508" version="1.1" xmlns="http://www.w3.org/2000/svg" xmlns:xlink="http://www.w3.org/1999/xlink" xml:space="preserve" xmlns:serif="http://www.serif.com/" style="fill-rule:evenodd;clip-rule:evenodd;stroke-linecap:round;stroke-linejoin:round;stroke-miterlimit:1.5;"><path d="M472.043,1372.59c-11.818,33.327 -21.371,67.721 -28.473,102.998l65.19,-0.417c5.186,-15.29 19.667,-26.46 36.7,-26.46c21.383,0 38.743,17.36 38.743,38.743c0,21.383 -17.36,38.743 -38.743,38.743c-17.033,0 -31.514,-11.016 -36.7,-26.306l-69.669,0c-6.861,40.976 -10.432,83.06 -10.432,125.972c0,52.659 5.378,104.072 15.614,153.719l-32.381,-0.132c-10.652,-51.664 -16.248,-105.165 -16.248,-159.963c0,-435.635 353.681,-789.316 789.316,-789.316c435.635,0 789.316,353.681 789.316,789.316c0,55.998 -5.844,110.642 -16.955,163.354l-27.941,-0c7.24,-34.347 12.152,-69.547 14.565,-105.427l-68.354,0c-5.996,14.679 -20.422,25.034 -37.247,25.034c-22.196,0 -40.215,-18.02 -40.215,-40.215c0,-22.196 18.02,-40.215 40.215,-40.215c18.055,-0 33.347,11.924 38.424,28.32l68.517,0c0.258,-8.126 0.388,-16.285 0.388,-24.474c0,-21.772 -0.919,-43.33 -2.721,-64.639l-75.845,-0c-6.542,11.299 -18.764,18.907 -32.748,18.907c-20.87,0 -37.814,-16.944 -37.814,-37.814c0,-20.87 16.944,-37.814 37.814,-37.814c19.045,0 34.82,14.11 37.433,32.437l68.713,0c-3.556,-30.394 -8.911,-60.241 -15.958,-89.433l-161.382,0c-6.275,15.588 -21.545,26.603 -39.368,26.603c-23.412,0 -42.419,-19.007 -42.419,-42.419c0,-23.412 19.007,-42.419 42.419,-42.419c19.699,0 36.28,13.457 41.043,31.671l58.196,0c-169.972,-379.063 -436.74,-487.098 -752.342,-458.397c0.544,2.419 0.831,4.935 0.831,7.517c0,18.85 -15.304,34.153 -34.153,34.153c-18.85,0 -34.153,-15.304 -34.153,-34.153c0,-18.85 15.304,-34.153 34.153,-34.153c11.672,0 21.984,5.867 28.145,14.811c335.308,-44.858 608.236,103.458 781.485,470.222l70.617,0c-89.493,-319.217 -382.82,-553.588 -730.456,-553.588c-269.84,-0 -506.959,141.211 -641.427,353.704l130.204,0l75.55,-72.064c-8.534,-14.1 -6.715,-32.727 5.455,-44.898c14.308,-14.308 37.541,-14.308 51.849,0c14.308,14.308 14.308,37.541 0,51.849c-10.265,10.265 -25.124,13.166 -37.986,8.702l-77.383,73.897l-158.907,0.808c-20.492,34.503 -38.326,70.767 -53.218,108.507l127,0c3.936,-16.004 18.393,-27.89 35.605,-27.89c20.235,0 36.663,16.428 36.663,36.663c0,20.235 -16.428,36.663 -36.663,36.663c-14.517,0 -27.075,-8.456 -33.013,-20.707l-138.853,-0Zm73.919,93.595c-11.739,0 -21.27,9.531 -21.27,21.27c0,11.739 9.531,21.27 21.27,21.27c11.739,0 21.27,-9.531 21.27,-21.27c0,-11.739 -9.531,-21.27 -21.27,-21.27Zm491.413,-512.296c-8.928,0 -16.176,7.248 -16.176,16.176c0,8.928 7.248,16.176 16.176,16.176c8.928,0 16.176,-7.248 16.176,-16.176c0,-8.928 -7.248,-16.176 -16.176,-16.176Zm796.985,569.522c-10.435,0 -18.907,8.472 -18.907,18.907c0,10.435 8.472,18.907 18.907,18.907c10.435,0 18.907,-8.472 18.907,-18.907c0,-10.435 -8.472,-18.907 -18.907,-18.907Zm3.985,118.714c-11.098,0 -20.108,9.01 -20.108,20.108c0,11.098 9.01,20.108 20.108,20.108c11.098,0 20.108,-9.01 20.108,-20.108c0,-11.098 -9.01,-20.108 -20.108,-20.108Zm-114.546,-231.642c-11.706,0 -21.21,9.504 -21.21,21.21c0,11.706 9.504,21.21 21.21,21.21c11.706,0 21.21,-9.504 21.21,-21.21c0,-11.706 -9.504,-21.21 -21.21,-21.21Zm-1079.89,-71.57c-9.781,0 -17.721,7.941 -17.721,17.721c0,9.781 7.941,17.721 17.721,17.721c9.781,0 17.721,-7.941 17.721,-17.721c0,-9.781 -7.941,-17.721 -17.721,-17.721Zm126.434,-221.42c-6.916,6.916 -6.916,18.146 0,25.062c6.916,6.916 18.146,6.916 25.062,0c6.916,-6.916 6.916,-18.146 0,-25.062c-6.916,-6.916 -18.146,-6.916 -25.062,0Z" style="fill:url(#_Linear1);"/><path d="M1386.748,2329.272c-5.862,16.97 -21.986,29.172 -40.938,29.172c-23.897,0 -43.299,-19.401 -43.299,-43.299c0,-23.897 19.401,-43.299 43.299,-43.299c19.7,0 36.345,13.185 41.584,31.204c0,0 125.833,-0.525 190.204,0.796c168.748,-104.17 278.289,-260.532 322.176,-412.782c-15.212,-8.578 -25.494,-24.889 -25.494,-43.583c0,-27.594 22.403,-49.998 49.998,-49.998c27.594,0 49.998,22.403 49.998,49.998c0,22.216 -14.521,41.068 -34.582,47.572l-7.439,24.073c-56.975,171.917 -188.494,316.997 -337.605,413.283l-207.9,-3.138Zm535.996,-507.079c-14.631,0 -26.509,11.878 -26.509,26.509c0,14.631 11.878,26.509 26.509,26.509c14.631,0 26.509,-11.878 26.509,-26.509c0,-14.631 -11.878,-26.509 -26.509,-26.509Zm-575.453,469.391c-12.927,0 -23.422,10.495 -23.422,23.422c0,12.927 10.495,23.422 23.422,23.422c12.927,0 23.422,-10.495 23.422,-23.422c0,-12.927 -10.495,-23.422 -23.422,-23.422Zm-501.624,-60.381l-11.567,19.378c-101.158,-65.321 -190.38,-163.744 -229.032,-280.373l-5.047,-16.331c-13.609,-4.413 -23.461,-17.201 -23.461,-32.273c0,-18.72 15.198,-33.919 33.919,-33.919c18.72,0 33.919,15.198 33.919,33.919c0,12.682 -6.975,23.748 -17.295,29.567c29.773,103.286 104.086,209.363 218.565,280.032Zm-234.148,-326.755c-9.926,0 -17.984,8.058 -17.984,17.984c0,9.926 8.058,17.984 17.984,17.984c9.926,0 17.984,-8.058 17.984,-17.984c0,-9.926 -8.058,-17.984 -17.984,-17.984Zm922.294,326.755c114.479,-70.669 188.792,-176.746 218.565,-280.032c-10.32,-5.819 -17.295,-16.885 -17.295,-29.567c0,-18.72 15.198,-33.919 33.919,-33.919c18.72,0 33.919,15.198 33.919,33.919c0,15.072 -9.851,27.86 -23.461,32.273l-5.047,16.331c-38.652,116.629 -127.874,215.052 -229.032,280.373l-11.567,-19.378Zm234.148,-326.755c-9.926,0 -17.984,8.058 -17.984,17.984c0,9.926 8.058,17.984 17.984,17.984c9.926,0 17.984,-8.058 17.984,-17.984c0,-9.926 -8.058,-17.984 -17.984,-17.984Zm-771.434,424.824l-207.9,3.138c-149.112,-96.286 -280.63,-241.367 -337.605,-413.283l-7.439,-24.073c-20.061,-6.504 -34.582,-25.356 -34.582,-47.572c0,-27.594 22.403,-49.998 49.998,-49.998c27.594,0 49.998,22.403 49.998,49.998c0,18.694 -10.282,35.005 -25.494,43.583c43.887,152.25 153.428,308.611 322.176,412.782c64.371,-1.32 190.204,-0.796 190.204,-0.796c5.239,-18.019 21.884,-31.204 41.584,-31.204c23.897,0 43.299,19.401 43.299,43.299c0,23.897 -19.401,43.299 -43.299,43.299c-18.952,0 -35.076,-12.202 -40.938,-29.172Zm39.457,-37.688c-12.927,0 -23.422,10.495 -23.422,23.422c0,12.927 10.495,23.422 23.422,23.422c12.927,0 23.422,-10.495 23.422,-23.422c0,-12.927 -10.495,-23.422 -23.422,-23.422Zm-575.453,-469.391c-14.631,0 -26.509,11.878 -26.509,26.509c0,14.631 11.878,26.509 26.509,26.509c14.631,0 26.509,-11.878 26.509,-26.509c0,-14.631 -11.878,-26.509 -26.509,-26.509Z" style="fill:url(#_Linear2);"/><path d="M627.412,1651.946c46.492,-129.833 118.882,-246.368 228.537,-343.766c-11.495,-122.045 12.636,-226.277 58.502,-319.641l220.548,259.732l233.943,79.014l85.273,136.869l279.025,119.1l-85.308,126.156c-26.788,29.909 -59.849,48.263 -103.245,47.579c-54.88,-0.385 -90.307,-4.388 -121.092,-9.256c-40.901,-4.092 -75.041,-3.976 -99.832,1.956c-30.467,8.026 -40.053,23.013 -40.305,41.111c0.146,9.1 2.939,19.082 10.604,30.689c29.379,33.876 46.933,72.482 58.828,113.351c14.831,53.314 15.944,109.567 6.876,168.002c-16.233,73.724 -35.068,101.987 -66.575,144.095l-53.945,72.989c-251.777,-177.177 -437.745,-330.732 -541.574,-454.8c-10.341,-69.542 15.568,-231.301 30.478,-244.32l-100.738,31.138Z" style="fill:#42caed;"/><path d="M892.624,1995.704c106.128,88.377 218.836,174.561 341.187,257.531c47.412,-57.577 83.302,-128.981 109.084,-212.514c-8.738,70.097 -43.968,141.426 -103.174,231.981c-141.667,-95.579 -263.116,-188.63 -347.097,-276.998Z" style="fill:#abedfb;"/><path d="M909.119,1324.808c-26.792,-74.393 -21.439,-158.677 14.893,-252.493l183.303,212.437l231.534,74.622l90.644,143.59l240.726,99.167l-49.331,72.15c-18.16,24.329 -41.46,38.296 -68.239,39.421c-62.916,-1.368 -109.704,-6.625 -149.827,-13.173c-59.597,-6.91 -110.68,-4.265 -144.284,18.001c-39.013,24.515 -58.901,57.037 -69.402,93.488c-4.901,26.299 -5.477,57.502 10.859,102.383c20.739,-94.148 53.659,-173.83 157.525,-169.265c-58.676,7.908 -76.934,24.519 -73.078,55.579c1.395,7.615 6.214,17.097 15.907,29.238c16.492,15.859 36.835,57.792 41.658,71.708c5.145,14.148 10.725,27.948 13.411,44.063c-9.663,110.917 -50.269,212.777 -118.919,306.429c-246.164,-169.803 -406.601,-304.08 -493.068,-407.702c-2.207,-101.524 13.01,-202.052 61.164,-300.698l-100.295,31.699c50.703,-99.684 108.887,-192.498 204.82,-250.644Z" style="fill:#0a245c;"/><path d="M748.873,1848.991l140.572,-96.389c8.49,29.655 19.646,59.855 31.666,82.45l-172.238,13.938Z" style="fill:#0c285c;stroke:#000;stroke-opacity:0;stroke-width:4.17px;"/><path d="M1429.493,1502.964l71.971,145.401l168.755,-46.673l-240.726,-98.729" style="fill:#1045a4;stroke:#000;stroke-opacity:0;stroke-width:4.17px;"/><path d="M1105.53,1145.248l40.701,-131.694l73.709,210.958l-114.411,-79.264Z" style="fill:#0e79c1;"/><path d="M968.847,1442.662c-105.948,123.85 -117.516,257.005 -47.15,398.238c30.578,-45.763 59.7,-86.375 81.796,-102.124c9.904,113.941 68.332,196.312 183.766,241.596c-113.564,-95.892 -151.895,-207.723 -145.428,-329.045c-48.23,30.535 -86.174,63.701 -112.01,99.964c-17.771,-91.624 -3.744,-194.872 39.026,-308.629Z" style="fill:url(#_Linear3);stroke:#000;stroke-width:1px;"/><path d="M1288.946,1689.621l126.706,-157.251l-80.532,-23.838c-38.717,-0.793 -71.132,-12.678 -85.9,-29.857l39.726,210.947Z" style="fill:#0b2a6a;"/><path d="M1007.014,1676.019l35.081,-25.217l-2.481,37.668l-9.585,-18.148l-23.015,5.697Z" style="fill:url(#_Linear4);stroke:#000;stroke-opacity:0;stroke-width:1px;"/><path d="M704.299,1573.591c44.326,-97.373 108.85,-183.728 205.476,-252.574l91.55,98.201l-214.504,167.798l18.071,-44.589l-100.592,31.164Z" style="fill:#114883;"/><path d="M909.29,1321.017c-23.384,-64.903 -24.891,-143.982 13.181,-248.701l185.224,213.365l11.598,2.758l106.457,171.044l-165.312,30.335l3.895,-9.088l-155.042,-159.714Z" style="fill:#0d376f;"/><path d="M1222.099,1452.324l1.808,-1.064l0.638,-4.148l10.848,0.213l112.476,-74.286l-7.27,-12.982l-220.846,-71.079l102.346,163.346Z" style="fill:#114883;stroke:#000;stroke-opacity:0;stroke-width:4.17px;"/><path d="M1059.187,1489.819l9.712,0l181.461,231.425c-78.088,68.077 -70.5,129.563 -52.142,190.222l55.729,103.92l-331.015,-116.938l-1.821,-57.65c23.866,-36.684 50.746,-71.43 82.884,-102.796c3.857,108.688 64.191,189.862 183.264,242.419c-121.147,-104.129 -149.951,-215.746 -142.945,-330.266l14.873,-160.336Z" style="fill:#0c285c;"/><path d="M966.036,1443.254l35.288,-25.203l61.371,61.485l-61.371,194.746l-75.557,53.361c-11.776,-64.268 -3.043,-149.012 40.269,-284.388Z" style="fill:url(#_Linear5);stroke:#000;stroke-opacity:0;stroke-width:4.17px;"/><path d="M1069.237,1489.819l158.77,-29.525c6.192,6.798 14.085,13.738 23.908,20.838l37.031,224.853c-12.093,2.295 -24.649,7.138 -37.903,15.822l-181.805,-231.988Z" style="fill:#0a245b;stroke:#0b265a;stroke-width:4.17px;"/><path d="M1224.056,1450.524c29.939,-10.068 59.878,-16.788 89.817,-15.187c12.645,9.785 27.299,34.377 43.277,68.743c-61.365,12.444 -104.226,-8.089 -133.094,-53.557Z" style="fill:#fff;stroke:#000;stroke-opacity:0;stroke-width:1px;"/><path d="M1501.731,1648.365l168.488,-47.023c-38.313,65.464 -67.567,107.67 -114.816,112.414l-53.672,-65.391Z" style="fill:#0c3d96;stroke:#000;stroke-opacity:0;stroke-width:4.17px;"/><path d="M1404.609,1700.319l97.122,-50.992l51.952,64.43c-59.051,-3.378 -109.071,-7.819 -149.074,-13.438Z" style="fill:#0c3d96;stroke:#000;stroke-opacity:0;stroke-width:4.17px;"/><path d="M1331.442,1452.619l91.695,41.142l77.808,155.566l-96.335,51.061c-41.955,-5.95 -80.249,-3.168 -115.033,5.223l-0.963,-20.877l126.289,-151.478l-76.927,-23.749c18.924,-0.73 22.67,-0.851 15.3,-14.717l-21.833,-42.17Z" style="fill:#0a2159;"/><path d="M1253.947,2015.385l-52.164,-102.128c20.772,-94.433 56.654,-169.928 152.237,-170.598c-51.63,7.057 -76.461,26.93 -69.451,62.032c0.319,14.698 32.887,46.572 38.37,58.783c12.566,20.175 23.3,46.787 31.085,75.726l-100.078,76.185Z" style="fill:#0a2e6d;"/><path d="M1252.922,2015.385l101.103,-73.92c8.259,52.379 -13.782,115.061 -44.059,184.421l-57.045,-110.502Z" style="fill:#0c51c7;stroke:#000;stroke-opacity:0;stroke-width:4.17px;"/><path d="M1252.922,2014.624l-13.201,235.5c24.587,-33.309 52.826,-84.034 70.569,-125.328l-57.369,-110.172Z" style="fill:url(#_Linear6);stroke:#000;stroke-opacity:0;stroke-width:4.17px;"/><path d="M748.873,1848.824l172.434,-10.076l7.571,58.05l324.044,120.161l-4.555,221.113l-10.95,15.986c-200.084,-133.482 -371.643,-268.187 -488.544,-405.234Z" style="fill:url(#_Linear7);stroke:#000;stroke-opacity:0;stroke-width:4.17px;"/><path d="M743.244,1837.267c-4.011,-96.961 10.148,-176.057 42.89,-251.472l175.103,-133.55c-57.306,71.428 -101.883,156.713 -73.052,300.189l-144.941,84.834Z" style="fill:#13306a;"/><path d="M1200.318,1911.716c30.092,-114.699 70.796,-170.675 155.27,-165.664c106.607,7.83 157.57,12.031 187.93,10.938c71.398,2.531 112.455,-65.049 100.863,-94.756c0,0 -29.083,38.198 -76.373,56c-65.83,10.013 -184.572,-24.223 -227.425,-22.47c-65.369,4.032 -104.824,28.259 -130.217,66.169c-32.014,58.527 -28.744,106.469 -10.048,149.783" style="fill:#3ba5ea;"/><path d="M908.456,1321.155c-122.724,60.393 -192.303,167.336 -222.07,261.531c-7.943,23.296 20.326,9.22 47.862,0.98l43.869,-15.139c-27.174,65.746 -39.847,120.616 -42.795,168.192c11.257,-42.26 46.332,-152.622 68.297,-192.502l-99.671,31.448c45.975,-100.056 111.218,-186.9 204.509,-254.51Z" style="fill:url(#_Linear8);"/><path d="M924.766,1072.315l183.009,216.663l231.86,70.291l68.351,92.976l-60.116,-105.237l-232.269,-75.359l-190.834,-199.334" style="fill:#a7ecfb;"/><g><path d="M2359.721,1639.09l23.627,0c21.953,0 37.177,-4.899 45.673,-14.697c8.496,-9.798 12.744,-27.348 12.744,-52.649c0,-24.681 -4.341,-42.169 -13.023,-52.463c-8.682,-10.294 -23.441,-15.441 -44.277,-15.441l-24.743,0l0,135.25Zm-87.996,69.393l0,-274.035l106.414,0c27.038,0 47.161,1.209 60.37,3.628c13.209,2.419 24.712,6.418 34.51,12c18.976,11.162 33.239,26.852 42.789,47.068c9.55,20.216 14.325,45.083 14.325,74.602c0,31.007 -5.922,57.083 -17.767,78.229c-11.844,21.146 -29.301,36.867 -52.37,47.161c-8.93,4.093 -20.123,7.007 -33.58,8.744c-13.457,1.736 -35.006,2.605 -64.649,2.605l-90.043,0Z" style="fill:#0a245b;fill-rule:nonzero;"/><path d="M2570.503,1708.483l0,-274.035l219.154,0l0,65.672l-131.158,0l0,36.464l110.879,0l0,62.881l-110.879,0l0,42.417l136.553,0l0,66.602l-224.549,0Z" style="fill:#0c285c;fill-rule:nonzero;"/><path d="M2813.47,1434.447l90.043,0l46.138,176.923l49.486,-176.923l86.508,0l-92.275,274.035l-87.624,0l-92.275,-274.035Z" style="fill:#0c285c;fill-rule:nonzero;"/><path d="M3284.149,1708.483l-66.044,-274.035l85.764,0l29.766,176.923l34.603,-176.923l72.927,0l33.115,176.923l28.836,-176.923l83.532,0l-65.114,274.035l-87.252,0l-31.255,-164.272l-30.138,164.272l-88.741,0Z" style="fill:url(#_Linear9);fill-rule:nonzero;"/><path d="M3692.877,1571.744c0,25.921 4.341,44.959 13.023,57.114c8.682,12.155 22.263,18.232 40.743,18.232c18.356,0 31.813,-6.046 40.37,-18.139c8.558,-12.093 12.837,-31.162 12.837,-57.207c0,-26.169 -4.279,-45.3 -12.837,-57.393c-8.558,-12.093 -22.015,-18.139 -40.37,-18.139c-18.48,0 -32.061,6.077 -40.743,18.232c-8.682,12.155 -13.023,31.255 -13.023,57.3Zm-88.741,0c0,-44.649 12.744,-79.873 38.231,-105.67c25.487,-25.797 60.246,-38.696 104.275,-38.696c43.905,0 78.57,12.899 103.996,38.696c25.425,25.797 38.138,61.021 38.138,105.67c0,44.525 -12.713,79.718 -38.138,105.577c-25.425,25.859 -60.091,38.789 -103.996,38.789c-44.029,0 -78.788,-12.93 -104.275,-38.789c-25.487,-25.859 -38.231,-61.052 -38.231,-105.577Z" style="fill:url(#_Linear10);fill-rule:nonzero;"/><path d="M3928.96,1708.483l0,-274.035l87.996,0l0,201.294l119.623,0l0,72.741l-207.62,0Z" style="fill:url(#_Linear11);fill-rule:nonzero;"/><path d="M4172.485,1708.483l0,-274.035l207.247,0l0,69.02l-119.251,0l0,42.417l94.88,0l0,66.23l-94.88,0l0,96.368l-87.996,0Z" style="fill:url(#_Linear12);fill-rule:nonzero;"/></g><g transform="matrix(160.666259,0,0,160.666259,4381.536971,1894.187049)"></g><text x="2261.809px" y="1894.187px" style="font-family:'LucidaSans', 'Lucida Sans', sans-serif;font-size:160.666px;">INGENIERÍA &amp; TECNOLOGÍA</text><defs><linearGradient id="_Linear1" x1="0" y1="0" x2="1" y2="0" gradientUnits="userSpaceOnUse" gradientTransform="matrix(0,-873.997036,873.997036,0,1174.895858,1797.483785)"><stop offset="0" style="stop-color:#1d78b8;stop-opacity:1"/><stop offset="1" style="stop-color:#42caed;stop-opacity:1"/></linearGradient><linearGradient id="_Linear2" x1="0" y1="0" x2="1" y2="0" gradientUnits="userSpaceOnUse" gradientTransform="matrix(0,-657.692955,657.692955,0,1174.895858,2319.926606)"><stop offset="0" style="stop-color:#074798;stop-opacity:1"/><stop offset="0.59" style="stop-color:#125fa8;stop-opacity:1"/><stop offset="0.81" style="stop-color:#2a94ca;stop-opacity:1"/><stop offset="1" style="stop-color:#42caed;stop-opacity:1"/></linearGradient><linearGradient id="_Linear3" x1="0" y1="0" x2="1" y2="0" gradientUnits="userSpaceOnUse" gradientTransform="matrix(-243.876471,-486.62328,486.62328,-243.876471,1162.735143,1977.427056)"><stop offset="0" style="stop-color:#42caed;stop-opacity:1"/><stop offset="1" style="stop-color:#97caed;stop-opacity:1"/></linearGradient><linearGradient id="_Linear4" x1="0" y1="0" x2="1" y2="0" gradientUnits="userSpaceOnUse" gradientTransform="matrix(12.531178,-21.541547,21.541547,12.531178,1032.286066,1672.343834)"><stop offset="0" style="stop-color:#72caed;stop-opacity:1"/><stop offset="1" style="stop-color:#e9e4f0;stop-opacity:1"/></linearGradient><linearGradient id="_Linear5" x1="0" y1="0" x2="1" y2="0" gradientUnits="userSpaceOnUse" gradientTransform="matrix(-102.0224,-85.399851,85.399851,-102.0224,1000.897355,1495.783303)"><stop offset="0" style="stop-color:#0b265a;stop-opacity:1"/><stop offset="1" style="stop-color:#3761b3;stop-opacity:1"/></linearGradient><linearGradient id="_Linear6" x1="0" y1="0" x2="1" y2="0" gradientUnits="userSpaceOnUse" gradientTransform="matrix(102.425281,-125.242848,125.242848,102.425281,1208.955595,2205.703093)"><stop offset="0" style="stop-color:#0c51c7;stop-opacity:1"/><stop offset="0.5" style="stop-color:#0d4fc0;stop-opacity:1"/><stop offset="1" style="stop-color:#0f48ab;stop-opacity:1"/></linearGradient><linearGradient id="_Linear7" x1="0" y1="0" x2="1" y2="0" gradientUnits="userSpaceOnUse" gradientTransform="matrix(405.606786,192.613952,-192.613952,405.606786,873.594383,1897.539449)"><stop offset="0" style="stop-color:#0c285c;stop-opacity:1"/><stop offset="0.56" style="stop-color:#0c3072;stop-opacity:1"/><stop offset="1" style="stop-color:#0c51c7;stop-opacity:1"/></linearGradient><linearGradient id="_Linear8" x1="0" y1="0" x2="1" y2="0" gradientUnits="userSpaceOnUse" gradientTransform="matrix(223.43046,0,0,415.564818,685.025735,1528.937245)"><stop offset="0" style="stop-color:#77d9f2;stop-opacity:1"/><stop offset="0.2" style="stop-color:#93e4f7;stop-opacity:1"/><stop offset="0.42" style="stop-color:#b1f0fc;stop-opacity:1"/><stop offset="1" style="stop-color:#bff5ff;stop-opacity:1"/></linearGradient><linearGradient id="_Linear9" x1="0" y1="0" x2="1" y2="0" gradientUnits="userSpaceOnUse" gradientTransform="matrix(1813.730886,0,0,1813.730886,2949.557715,1571.464805)"><stop offset="0" style="stop-color:#0a245b;stop-opacity:1"/><stop offset="0.35" style="stop-color:#3ab2d8;stop-opacity:1"/><stop offset="1" style="stop-color:#42caed;stop-opacity:1"/></linearGradient><linearGradient id="_Linear10" x1="0" y1="0" x2="1" y2="0" gradientUnits="userSpaceOnUse" gradientTransform="matrix(371.721216,0,0,371.721216,3517.054447,1518.112808)"><stop offset="0" style="stop-color:#42caed;stop-opacity:1"/><stop offset="1" style="stop-color:#0098bf;stop-opacity:1"/></linearGradient><linearGradient id="_Linear11" x1="0" y1="0" x2="1" y2="0" gradientUnits="userSpaceOnUse" gradientTransform="matrix(-156.276675,-137.017732,137.017732,-156.276675,4085.236765,1571.464805)"><stop offset="0" style="stop-color:#42caed;stop-opacity:1"/><stop offset="1" style="stop-color:#0098bf;stop-opacity:1"/></linearGradient><linearGradient id="_Linear12" x1="0" y1="0" x2="1" y2="0" gradientUnits="userSpaceOnUse" gradientTransform="matrix(-232.295601,0,-0,-232.295601,4446.23661,1571.743864)"><stop offset="0" style="stop-color:#42caed;stop-opacity:1"/><stop offset="1" style="stop-color:#0098bf;stop-opacity:1"/></linearGradient></defs></svg>